<?xml version='1.0' encoding='utf-8'?>
<svg xmlns="http://www.w3.org/2000/svg" baseProfile="tiny" gorn="0" height="0.33in" id="svg2" version="1.2" viewBox="0 0 30.0 33.0" width="0.3in" xml:space="preserve"  xmlns:xml="http://www.w3.org/XML/1998/namespace">
    <desc>
        <referenceFile>generic_dip_v2_icon.svg</referenceFile>
    </desc>
    <g gorn="0.0" id="icon" >
        <rect fill="#303030" gorn="0.0.0" height="27.0" id="middle" width="30.0" x="0"  y="3"/>
        <rect fill="#3D3D3D" gorn="0.0.1" height="2.46" id="top" width="30.0" x="0"  y="3.0"/>
        <rect fill="#000000" gorn="0.0.2" height="2.46" id="bottom" width="30.0" x="0"  y="27.54"/>
        <polygon fill="#141414" gorn="0.0.3" id="right" points="30.0,3 29.25,5.46 29.25,27.54 30.0,30.0" />
        <polygon fill="#1F1F1F" gorn="0.0.4" id="left" points="0,3 0.75,5.46 0.75,27.54 0,30.0" />
        <polygon fill="#1C1C1C" gorn="0.0.5" id="left-upper-rect" points="5,11.5 0.75,11.46 0.56,13.58 0.56,16.5 5,16.5" />
        <polygon fill="#383838" gorn="0.0.6" id="left-lower-rect" points="0.75,21.55 5,21.55 5,16.5 0.56,16.5 0.56,19.42" />
        <path d="M0.56,13.58v5.83c1.47-0.17,2.62-1.4,2.62-2.92C3.18,14.97,2.04,13.75,0.56,13.58z" fill="#262626" gorn="0.0.7" id="slot" />
        <path d="M0.75,5.46V11.45c2.38,0.45,4.19,2.53,4.19,5.04c0,2.51-1.8,4.6-4.19,5.05V21.55h5.0V5.46H0.75z" fill="#303030" gorn="0.0.8" id="cover" />
        <circle cx="6.5" cy="23.47" fill="#212121" r="2.06" />
        <text fill="#dddddd" font-family="OCR-Fritzing-mono" font-size="8" gorn="0.0.10" id="label" stroke="none" text-anchor="start" x="7.5"  y="14.5">IC</text>
        <text fill="#dddddd" font-family="OCR-Fritzing-mono" font-size="8" gorn="0.0.11" id="label" stroke="none" text-anchor="start" x="7.5"  y="23.5">v2</text>
        <rect fill="#8C8C8C" gorn="0.0.12" height="4.34" id="connector0pin" width="3" x="3.5"  y="28.66"/>
        <rect fill="#8C8C8C" gorn="0.0.13" height="3" id="connector0terminal" width="3" x="3.5"  y="30.0"/>
        <polygon fill="#8C8C8C" points="3.5,28.66 3.5,30.66 6.5,30.66 8.5,29.74 8.5,28.66  " />
        <rect fill="#8C8C8C" gorn="0.0.15" height="4.34" id="connector5pin" width="3" x="3.5" />
        <rect fill="#8C8C8C" gorn="0.0.16" height="3" id="connector5terminal" width="3" x="3.5" />
        <polygon fill="#8C8C8C" points="8.5,4.34 8.5,3.26 6.5,2.34 3.5,2.34 3.5,4.34" />
        <rect fill="#8C8C8C" gorn="0.0.18" height="4.34" id="connector2pin" width="3" x="23.5"  y="28.66"/>
        <rect fill="#8C8C8C" gorn="0.0.19" height="3" id="connector2terminal" width="3" x="23.5"  y="30.0"/>
        <polygon fill="#8C8C8C" points="21.5,28.66 21.5,29.74 23.5,30.66 26.5,30.66 26.5,28.66" />
        <rect fill="#8C8C8C" gorn="0.0.21" height="4.34" id="connector3pin" width="3" x="23.5"  y="0"/>
        <rect fill="#8C8C8C" gorn="0.0.22" height="3" id="connector3terminal" width="3" x="23.5"  y="0"/>
        <polygon fill="#8C8C8C" points="26.5,4.34 26.5,2.34 23.5,2.34 21.5,3.26 21.5,4.34  " />
        <rect fill="#8C8C8C" gorn="0.0.24" height="4.34" id="connector1pin" width="3" x="13.5"  y="28.66"/>
        <rect fill="#8C8C8C" gorn="0.0.25" height="3" id="connector1terminal" width="3" x="13.5"  y="30.0"/>
        <polygon fill="#8C8C8C" points="11.5,28.66 11.5,29.74 13.5,30.66 16.5,30.66 18.5,29.74 18.5,28.66" />
        <rect fill="#8C8C8C" gorn="0.0.27" height="4.34" id="connector4pin" width="3" x="13.5"  y="0"/>
        <rect fill="#8C8C8C" gorn="0.0.28" height="3" id="connector4terminal" width="3" x="13.5" />
        <polygon fill="#8C8C8C" points="18.5,4.34 18.5,3.26 16.5,2.34 13.5,2.34 11.5,3.26 11.5,4.34" />
    </g>
</svg>
