<?xml version='1.0' encoding='UTF-8' standalone='no'?>
<!-- Created with Fritzing (https://fritzing.org/) -->
<svg xmlns="http://www.w3.org/2000/svg" baseProfile="tiny" height="0.33in" version="1.2" viewBox="0 0 400 330" width="0.4in" x="0in"  y="0in">
    <desc >
        <referenceFile >generic_ic_dip_v2_8_300mil_bread.svg</referenceFile>
    </desc>
    <g gorn="0.1" id="breadboard" >
        <rect fill="#303030" gorn="0.1.0" height="270" id="middle" width="400" x="0"  y="30"/>
        <rect fill="#3D3D3D" gorn="0.1.1" height="24.6" id="top" width="400" x="0"  y="30"/>
        <rect fill="#000000" gorn="0.1.2" height="24.6" id="bottom" width="400" x="0"  y="275.4"/>
        <polygon fill="#141414" gorn="0.1.3" id="right" points="400,30,392.5,54.6,392.5,275.4,400,300" />
        <polygon fill="#1F1F1F" gorn="0.1.4" id="left" points="0,30,7.5,54.6,7.5,275.4,0,300" />
        <polygon fill="#1C1C1C" gorn="0.1.5" id="left-upper-rect" points="50,115,7.5,114.6,5.6,135.8,5.6,165,50,165" />
        <polygon fill="#383838" gorn="0.1.6" id="left-lower-rect" points="7.5,215.5,50,215.5,50,165,5.6,165,5.6,194.2" />
        <path d="M5.6,135.8l0,58.3c14.7,-1.7,26.2,-14,26.2,-29.2C31.8,149.7,20.4,137.5,5.6,135.8z" fill="#262626" gorn="0.1.7" id="slot" />
        <path d="M7.5,54.6L7.5,114.5c23.8,4.5,41.9,25.3,41.9,50.4c0,25.1,-18,46,-41.9,50.5L7.5,215.5l50,0L57.5,54.6L7.5,54.6z" fill="#303030" gorn="0.1.8" id="cover" />
        <circle cx="65" cy="234.7" fill="#212121" r="20.6" />
        <text fill="#e6e6e6" font-family="OCR-Fritzing-mono" font-size="75" gorn="0.1.10" id="label" stroke="none" text-anchor="start" x="70"  y="140">IC</text>
        <text fill="#e6e6e6" font-family="OCR-Fritzing-mono" font-size="75" gorn="0.1.11" id="label2" stroke="none" text-anchor="start" x="70"  y="240"/>
        <rect fill="#8C8C8C" gorn="0.1.12" height="43.4" id="connector0pin" width="30" x="35"  y="286.6"/>
        <polygon fill="#8C8C8C" points="35,286.6,35,306.6,65,306.6,85,297.4,85,286.6" />
        <rect fill="#8C8C8C" gorn="0.1.14" height="43.4" id="connector7pin" width="30" x="35" />
        <polygon fill="#8C8C8C" points="85,43.4,85,32.6,65,23.4,35,23.4,35,43.4" />
        <rect fill="#8C8C8C" gorn="0.1.16" height="43.4" id="connector3pin" width="30" x="335"  y="286.6"/>
        <polygon fill="#8C8C8C" points="315,286.6,315,297.4,335,306.6,365,306.6,365,286.6" />
        <rect fill="#8C8C8C" gorn="0.1.18" height="43.4" id="connector4pin" width="30" x="335"  y="0"/>
        <polygon fill="#8C8C8C" points="365,43.4,365,23.4,335,23.4,315,32.6,315,43.4" />
        <rect fill="#8C8C8C" gorn="0.1.20" height="43.4" id="connector6pin" width="30" x="135"  y="0"/>
        <polygon fill="#8C8C8C" points="185,43.4,185,32.6,165,23.4,135,23.4,115,32.6,115,43.4" />
        <rect fill="#8C8C8C" gorn="0.1.22" height="43.4" id="connector5pin" width="30" x="235"  y="0"/>
        <polygon fill="#8C8C8C" points="285,43.4,285,32.6,265,23.4,235,23.4,215,32.6,215,43.4" />
        <rect fill="#8C8C8C" gorn="0.1.24" height="43.4" id="connector1pin" width="30" x="135"  y="286.6"/>
        <polygon fill="#8C8C8C" points="115,286.6,115,297.4,135,306.6,165,306.6,185,297.4,185,286.6" />
        <rect fill="#8C8C8C" gorn="0.1.26" height="43.4" id="connector2pin" width="30" x="235"  y="286.6"/>
        <polygon fill="#8C8C8C" points="215,286.6,215,297.4,235,306.6,265,306.6,285,297.4,285,286.6" />
    </g>
    <g transform="translate(4115.02,3918.77)">
        <g>
            <rect fill="#ffe9c8" height="422.222" stroke="#fabc4f" stroke-width="77.7778" width="1477.78" x="38.8889" y="38.8889"/>
            <text fill="#000000" font-family="Droid Sans" font-size="92.7083" stroke="none" text-anchor="left" x="122.222" y="214.931">
                <tspan fill="#000000">[write your note here]</tspan>
            </text>
        </g>
    </g>
</svg>
